HIERARCHY
ROOT Hips
{
	OFFSET 0.000000 0.000000 0.000000
	CHANNELS 6 Xposition Yposition Zposition Zrotation Yrotation Xrotation 
	JOINT LowerBack
	{
		OFFSET 0.000000 0.000000 0.000000
		CHANNELS 3 Zrotation Yrotation Xrotation
		JOINT Spine
		{
			OFFSET 0.028270 2.035590 -0.193380
			CHANNELS 3 Zrotation Yrotation Xrotation
			JOINT Spine1
			{
				OFFSET 0.056720 2.048850 -0.042750
				CHANNELS 3 Zrotation Yrotation Xrotation
				JOINT Neck
				{
					OFFSET 0.000000 0.000000 0.000000
					CHANNELS 3 Zrotation Yrotation Xrotation
					JOINT Neck1
					{
						OFFSET -0.054170 1.746240 0.172020
						CHANNELS 3 Zrotation Yrotation Xrotation
						JOINT Head
						{
							OFFSET 0.104070 1.761360 -0.123970
							CHANNELS 3 Zrotation Yrotation Xrotation
							End Site
							{
								OFFSET 0.000000 0.000000 0.000000
							}
						}
					}
				}
				JOINT LeftShoulder
				{
					OFFSET 0.000000 0.000000 0.000000
					CHANNELS 3 Zrotation Yrotation Xrotation
					JOINT LeftArm
					{
						OFFSET 3.362410 1.200890 -0.311210
						CHANNELS 3 Zrotation Yrotation Xrotation
						JOINT LeftForeArm
						{
							OFFSET 4.983000 -0.000000 -0.000000
							CHANNELS 3 Zrotation Yrotation Xrotation
							JOINT LeftHand
							{
								OFFSET 3.483560 -0.000000 -0.000000
								CHANNELS 3 Zrotation Yrotation Xrotation
								JOINT LeftFingerBase
								{
									OFFSET 0.000000 0.000000 0.000000
									CHANNELS 3 Zrotation Yrotation Xrotation
									JOINT LeftHandIndex1
									{
										OFFSET 0.715260 -0.000000 -0.000000
										CHANNELS 3 Zrotation Yrotation Xrotation
										End Site
										{
											OFFSET 0.000000 0.000000 0.000000
										}
									}
								}
								JOINT LThumb
								{
									OFFSET 0.000000 0.000000 0.000000
									CHANNELS 3 Zrotation Yrotation Xrotation
									End Site
									{
										OFFSET 0.000000 0.000000 0.000000
									}
								}
							}
						}
					}
				}
				JOINT RightShoulder
				{
					OFFSET 0.000000 0.000000 0.000000
					CHANNELS 3 Zrotation Yrotation Xrotation
					JOINT RightArm
					{
						OFFSET -3.136600 1.374050 -0.404650
						CHANNELS 3 Zrotation Yrotation Xrotation
						JOINT RightForeArm
						{
							OFFSET -5.241900 -0.000000 -0.000000
							CHANNELS 3 Zrotation Yrotation Xrotation
							JOINT RightHand
							{
								OFFSET -3.444170 -0.000000 -0.000000
								CHANNELS 3 Zrotation Yrotation Xrotation
								JOINT RightFingerBase
								{
									OFFSET 0.000000 0.000000 0.000000
									CHANNELS 3 Zrotation Yrotation Xrotation
									JOINT RightHandIndex1
									{
										OFFSET -0.622530 -0.000000 -0.000000
										CHANNELS 3 Zrotation Yrotation Xrotation
										End Site
										{
											OFFSET 0.000000 0.000000 0.000000
										}
									}
								}
								JOINT RThumb
								{
									OFFSET 0.000000 0.000000 0.000000
									CHANNELS 3 Zrotation Yrotation Xrotation
									End Site
									{
										OFFSET 0.000000 0.000000 0.000000
									}
								}
							}
						}
					}
				}
			}
		}
	}
}
}
MOTION
Frames: 12
Frame Time: 0.008333
-19.096598 15.836369 0.194406 11.782583 84.885411 28.604491 -12.028011 3.736682 -8.147771 -3.041732 4.654745 -5.033078 -3.142671 4.435613 -0.867054 1.778767 -2.641412 -8.462071 -0.668039 -0.038291 -0.213458 0.000000 0.000000 0.000000 0.021786 20.092602 2.467806 -31.951387 30.098956 -0.675024 -5.030417 0.742406 -0.022042 7.274429 7.382805 0.486180 -0.212035 -0.049598 -0.000000 0.000000 0.000000 0.000000 0.000000 0.000000 0.000000 -4.580102 4.303936 -0.404816 39.669675 64.076230 22.643888 0.552121 77.473207 -0.028905 -1.660806 8.770387 -0.129135 -0.082633 -0.601226 0.000000 0.000000 0.000000 0.000000 0.000000 0.000000 0.000000 
-18.866292 15.858808 0.181074 11.627771 84.475200 27.903494 -12.205268 3.740480 -7.932089 -3.135599 4.664159 -4.984334 -3.389670 4.459046 -0.796174 2.309809 -2.255002 -8.561806 -0.857401 -0.051187 -0.255878 0.000000 0.000000 0.000000 -0.680046 20.155627 2.544303 -32.996979 28.790629 0.131764 -5.151023 0.379498 -0.022133 6.626942 7.421463 0.445287 -0.201532 -0.042906 -0.000000 0.000000 0.000000 0.000000 0.000000 0.000000 0.000000 -3.412329 5.003938 -0.071468 43.183753 62.824524 25.758618 0.621963 77.066652 -0.024534 -1.611084 8.716381 -0.125516 -0.062634 -0.589781 0.000000 0.000000 0.000000 0.000000 0.000000 0.000000 0.000000 
-18.640929 15.878399 0.165254 11.718130 84.086305 27.385952 -12.343487 3.738427 -7.627836 -3.218642 4.662605 -4.926595 -3.648693 4.472735 -0.764034 2.831726 -1.838929 -8.632920 -1.064346 -0.065923 -0.292082 0.000000 0.000000 0.000000 -1.384912 20.159134 2.645483 -34.122406 27.398949 1.063678 -5.265218 -0.087623 -0.021708 5.970265 7.328803 0.396306 -0.192061 -0.036528 -0.000000 0.000000 0.000000 0.000000 0.000000 0.000000 0.000000 -2.206330 5.779447 0.205302 46.664716 61.234131 28.668114 0.693260 76.509577 -0.020438 -1.608576 8.677245 -0.126112 -0.040980 -0.577065 0.000000 0.000000 0.000000 0.000000 0.000000 0.000000 0.000000 
-18.420529 15.894264 0.147007 12.105513 83.741856 27.122878 -12.444665 3.720539 -7.240842 -3.289467 4.640460 -4.863856 -3.917731 4.465962 -0.784227 3.337432 -1.397239 -8.667805 -1.287079 -0.082476 -0.319557 0.000000 0.000000 0.000000 -2.089664 20.094914 2.766599 -35.300880 25.953632 2.154087 -5.367281 -0.685950 -0.020773 5.333714 7.115300 0.344236 -0.183610 -0.031306 0.000000 0.000000 0.000000 0.000000 0.000000 0.000000 0.000000 -0.972585 6.606405 0.411096 50.062923 59.301178 31.294387 0.765754 75.763167 -0.016961 -1.677063 8.664418 -0.132929 -0.018377 -0.563941 0.000000 0.000000 0.000000 0.000000 0.000000 0.000000 0.000000 
-18.205433 15.905914 0.126376 12.778241 83.456414 27.121742 -12.509235 3.678482 -6.779339 -3.347507 4.589421 -4.796165 -4.196342 4.429439 -0.852904 3.830845 -0.951558 -8.674353 -1.524999 -0.100653 -0.340338 0.000000 0.000000 0.000000 -2.790597 19.997023 2.899608 -36.510267 24.421947 3.443163 -5.450739 -1.417431 -0.019385 4.750343 6.801349 0.293576 -0.175933 -0.027854 -0.000000 0.000000 0.000000 0.000000 0.000000 0.000000 0.000000 0.304969 7.438517 0.543680 53.291869 57.082230 33.577576 0.838012 74.787154 -0.014486 -1.850418 8.703725 -0.149070 0.004470 -0.551490 -0.000000 0.000000 0.000000 0.000000 0.000000 0.000000 0.000000 
-17.995413 15.913095 0.103771 13.776312 83.249251 27.437424 -12.538336 3.607041 -6.251256 -3.391422 4.504746 -4.729107 -4.477870 4.357368 -0.987751 4.296184 -0.491830 -8.636351 -1.770843 -0.120105 -0.349202 0.000000 0.000000 0.000000 -3.501018 19.799812 3.035848 -37.718834 22.913283 4.931691 -5.512156 -2.336407 -0.017622 4.254116 6.411694 0.248424 -0.168790 -0.026739 -0.000000 0.000000 0.000000 0.000000 0.000000 0.000000 0.000000 1.581155 8.264087 0.605902 56.365774 54.555662 35.457487 0.908967 73.561491 -0.012986 -2.115993 8.773555 -0.173239 0.026320 -0.539829 -0.000000 0.000000 0.000000 0.000000 0.000000 0.000000 0.000000 
-17.790287 15.916149 0.079135 15.023476 83.120348 28.008993 -12.530203 3.504970 -5.669955 -3.421949 4.385093 -4.658719 -4.762599 4.247839 -1.163385 4.748577 -0.053362 -8.575238 -2.024849 -0.140471 -0.352181 0.000000 0.000000 0.000000 -4.224735 19.553194 3.163760 -38.906043 21.353733 6.603695 -5.545541 -3.416919 -0.015601 3.881633 5.979887 0.211878 -0.161597 -0.027812 -0.000000 0.000000 0.000000 0.000000 0.000000 0.000000 0.000000 2.895183 9.026648 0.618881 59.173257 51.836027 36.910467 0.975960 72.064311 -0.012699 -2.500088 8.914348 -0.209038 0.046640 -0.529729 -0.000000 0.000000 0.000000 0.000000 0.000000 0.000000 0.000000 
-17.590035 15.915501 0.052812 16.517734 83.075159 28.845182 -12.485109 3.374611 -5.047805 -3.439275 4.233391 -4.584958 -5.044686 4.103457 -1.369561 5.185167 0.354451 -8.493766 -2.281278 -0.161202 -0.349711 0.000000 0.000000 0.000000 -4.963593 19.240495 3.276025 -40.058971 19.740432 8.403034 -5.546825 -4.634737 -0.013400 3.671973 5.532268 0.185635 -0.153786 -0.030632 -0.000000 0.000000 0.000000 0.000000 0.000000 0.000000 0.000000 4.227340 9.700547 0.598957 61.705788 48.962076 37.916992 1.036767 70.293938 -0.013515 -2.988485 9.118305 -0.256064 0.064661 -0.520793 -0.000000 0.000000 0.000000 0.000000 0.000000 0.000000 0.000000 
-17.394094 15.912002 0.024966 18.236958 83.111105 29.934510 -12.403213 3.222021 -4.400992 -3.444463 4.056347 -4.507644 -5.320986 3.930778 -1.590383 5.611034 0.709817 -8.398569 -2.536741 -0.181893 -0.343373 0.000000 0.000000 0.000000 -5.722938 18.839698 3.365573 -41.166586 18.069128 10.218693 -5.514673 -5.954958 -0.011104 3.652660 5.098649 0.169992 -0.144843 -0.034382 -0.000000 0.000000 0.000000 0.000000 0.000000 0.000000 0.000000 5.579238 10.254098 0.569747 63.940493 45.999222 38.483280 1.090157 68.252952 -0.015300 -3.572898 9.383807 -0.314922 0.080169 -0.512446 -0.000000 0.000000 0.000000 0.000000 0.000000 0.000000 0.000000 
-17.202151 15.906393 -0.004010 20.177338 83.224018 31.281217 -12.291154 3.057899 -3.747314 -3.439029 3.866492 -4.425153 -5.585807 3.742805 -1.804836 6.024947 1.004567 -8.297898 -2.788282 -0.202126 -0.335518 0.000000 0.000000 0.000000 -6.501491 18.399811 3.413561 -42.233479 16.107680 11.561453 -5.465174 -6.878990 -0.007634 3.783973 4.215946 0.145550 -0.135413 -0.039798 -0.000000 0.000000 0.000000 0.000000 0.000000 0.000000 0.000000 6.931353 10.663392 0.540848 65.880802 42.982396 38.598044 1.134370 65.960638 -0.017839 -4.230040 9.697017 -0.384507 0.092767 -0.503822 -0.000000 0.000000 0.000000 0.000000 0.000000 0.000000 0.000000 
-17.013906 15.899867 -0.034234 22.276096 83.394197 32.835690 -12.138256 2.888615 -3.106273 -3.422957 3.669397 -4.342332 -5.836669 3.544602 -2.008050 6.428942 1.227378 -8.190764 -3.026836 -0.221209 -0.324860 0.000000 0.000000 0.000000 -7.259969 17.800527 3.455567 -43.313151 14.192367 13.020842 -5.373903 -8.134690 -0.005375 4.187012 3.836647 0.145900 -0.123371 -0.042268 -0.000000 0.000000 0.000000 0.000000 0.000000 0.000000 0.000000 8.259855 10.928240 0.528808 67.566183 39.956389 38.292073 1.170301 63.412910 -0.020846 -4.942958 10.043141 -0.464118 0.102723 -0.493913 -0.000000 0.000000 0.000000 0.000000 0.000000 0.000000 0.000000 
-16.828871 15.893282 -0.065406 24.503764 83.607719 34.577274 -11.951544 2.725207 -2.497339 -3.398098 3.477906 -4.257965 -6.070516 3.349681 -2.179486 6.823064 1.372375 -8.088518 -3.250044 -0.238764 -0.314609 0.000000 0.000000 0.000000 -7.994647 17.118834 3.475510 -44.413310 12.072722 14.147630 -5.259847 -9.227256 -0.003290 4.777742 3.492685 0.150846 -0.109959 -0.042305 -0.000000 0.000000 0.000000 0.000000 0.000000 0.000000 0.000000 9.544796 11.033969 0.534646 69.021440 36.956007 37.564285 1.198255 60.628114 -0.024058 -5.693691 10.400082 -0.551854 0.110124 -0.481806 -0.000000 0.000000 0.000000 0.000000 0.000000 0.000000 0.000000 
